<svg xmlns="http://www.w3.org/2000/svg" width="141.623" height="24.669" viewBox="0 0 141.623 24.669">
  <g id="logo" transform="translate(-31 -14.561)">
    <g id="组_193" data-name="组 193" transform="translate(23.769 -85.382)">
      <path id="路径_304" data-name="路径 304" d="M141.391,100.152h7.258v1.988h-4.333V105h4.1v2h-4.1v3.071h4.538v2.014h-7.463Zm-6.195.361-.144,2.235a4.754,4.754,0,0,0-1.157-.487,5.005,5.005,0,0,0-1.265-.152,3.02,3.02,0,0,0-2.462,1.041,4.474,4.474,0,0,0-.866,2.944,4.54,4.54,0,0,0,.891,3.006,3.151,3.151,0,0,0,2.545,1.058,4.386,4.386,0,0,0,1.194-.169,5.583,5.583,0,0,0,1.21-.519l.125,2.3a7.774,7.774,0,0,1-1.427.379,9.485,9.485,0,0,1-1.561.126,5.922,5.922,0,0,1-4.423-1.67,6.981,6.981,0,0,1-.012-8.98,5.755,5.755,0,0,1,4.337-1.679,8.1,8.1,0,0,1,1.5.143A9.33,9.33,0,0,1,135.2,100.513Zm-21.228-.361h3.381l3.956,11.927h-3.032l-.735-2.659h-4.1l-.772,2.659h-2.844Zm1.641,2.349-1.525,4.853h2.878Zm-17.5-2.349h3.185a13.279,13.279,0,0,1,2.031.12,3.879,3.879,0,0,1,1.234.392,3.273,3.273,0,0,1,1.359,1.327,4.008,4.008,0,0,1,.463,1.971,3.4,3.4,0,0,1-1.166,2.814,5.462,5.462,0,0,1-3.482.94h-.7v4.363H98.108Zm2.924,1.988V105.7h.684a1.529,1.529,0,0,0,1.81-1.8,1.812,1.812,0,0,0-.423-1.353,2.085,2.085,0,0,0-1.461-.4Zm-9.919-1.8-.171,2.146a8.215,8.215,0,0,0-1.31-.419,5.518,5.518,0,0,0-1.185-.143,2.285,2.285,0,0,0-1.3.318,1.031,1.031,0,0,0-.463.9,1.206,1.206,0,0,0,.386.906,6.1,6.1,0,0,0,1.58.9,7.228,7.228,0,0,1,2.579,1.647,3.077,3.077,0,0,1,.588,1.963,3.336,3.336,0,0,1-1.21,2.719,5.052,5.052,0,0,1-3.314,1,9.636,9.636,0,0,1-1.525-.129,16.6,16.6,0,0,1-1.73-.393l.224-2.149a8.656,8.656,0,0,0,1.525.545,5.825,5.825,0,0,0,1.381.177,2.189,2.189,0,0,0,1.36-.372,1.23,1.23,0,0,0,.49-1.037q0-.933-2.036-1.9c-.168-.078-.294-.137-.377-.178a5.857,5.857,0,0,1-2.153-1.476,2.964,2.964,0,0,1-.538-1.831,3.2,3.2,0,0,1,1.179-2.633,5.051,5.051,0,0,1,3.27-.957,9.26,9.26,0,0,1,1.32.1A12.107,12.107,0,0,1,91.114,100.338Zm-20.661-.186H77.71v1.988H73.377V105h4.1v2h-4.1v3.071h4.538v2.014H70.453Zm-13.931,0H63.78v1.988H59.447V105h4.1v2h-4.1v3.071h4.538v2.014H56.522Zm-7,.252-.181,2.166a5.2,5.2,0,0,0-1.289-.467,7.107,7.107,0,0,0-1.5-.146A3.494,3.494,0,0,0,43.8,103.04a4.449,4.449,0,0,0-.968,3.071,4.965,4.965,0,0,0,.83,3.095,2.854,2.854,0,0,0,2.4,1.069,2.979,2.979,0,0,0,.527-.046,3.491,3.491,0,0,0,.543-.146v-2.814H45.5v-2.014h4.4v6.378a8.215,8.215,0,0,1-1.779.476,13.637,13.637,0,0,1-2.169.163,6.328,6.328,0,0,1-4.578-1.57,5.839,5.839,0,0,1-1.629-4.415,6.209,6.209,0,0,1,1.721-4.673,6.658,6.658,0,0,1,4.836-1.67,11.628,11.628,0,0,1,1.656.117A10.635,10.635,0,0,1,49.519,100.4Z" fill="#fff"/>
      <path id="路径_305" data-name="路径 305" d="M141.141,127.067c.247-.049.463-.1.646-.14a5.213,5.213,0,0,0,.727-.251v-1.437h-.7l-.627.017v-.984l.648.022h.68v-.907l-.027-.728h1.046l-.022.748v.887h.258l.49-.022v.984l-.5-.017h-.245v1.1a8.655,8.655,0,0,0,.8-.33c-.014.145-.028.288-.043.425a1.906,1.906,0,0,0-.017.245l.009.3c-.229.1-.479.2-.748.3v2.4a1.233,1.233,0,0,1-.122.68.853.853,0,0,1-.339.254,4.338,4.338,0,0,1-1.073.154,6.4,6.4,0,0,0-.173-.829l-.09-.294a2.883,2.883,0,0,0,.486.022c.138-.009.225-.037.26-.083a.361.361,0,0,0,.055-.222V127.7c-.135.048-.235.086-.3.112l-.392.164-.327.132c-.042-.112-.072-.2-.09-.257l-.12-.383Zm6.347-.361h-1.531a3.868,3.868,0,0,0,.43.981l.327.481c.178-.247.318-.46.424-.639A4.948,4.948,0,0,0,147.489,126.706ZM146,128.87a11.251,11.251,0,0,1-.615-1.009,8.81,8.81,0,0,1-.43-.953,3.745,3.745,0,0,0,.572-.2h-.474l-.541.026,0-.971.568.021h.937V124.9h-.856l-.7.022v-.989l.713.02h.843v-.64l-.021-.676h1.088l-.018.645v.671h1.317l.7-.02v.989l-.658-.022h-1.359v.885h1.317l.288.409c-.06.237-.119.452-.178.644a6.351,6.351,0,0,1-.322.781,5.545,5.545,0,0,1-.446.8l-.3.439c.147.12.276.22.391.3a4.485,4.485,0,0,0,.586.314,4.908,4.908,0,0,0,.946.32q-.121.193-.208.343c-.059.1-.171.314-.333.641a11.363,11.363,0,0,1-1.171-.541,5.879,5.879,0,0,1-.923-.684,6.722,6.722,0,0,1-1.033.7,4.763,4.763,0,0,1-.786.37l-.494.165c-.037-.084-.081-.176-.131-.278a7.584,7.584,0,0,0-.5-.73c.186-.017.367-.041.542-.07a3.874,3.874,0,0,0,.744-.245A3.458,3.458,0,0,0,146,128.87Zm-21.114-4.92a4.639,4.639,0,0,0,.758-.7c.141.141.246.244.319.309l.352.326.494.466a6.116,6.116,0,0,0-.7.813c-.2-.233-.381-.43-.535-.591A8.027,8.027,0,0,0,124.882,123.949Zm-.133,2.121a5.429,5.429,0,0,0,.7-.689q.713.636,1.2,1.118c-.085.089-.147.154-.185.2l-.343.418-.163.189a8.572,8.572,0,0,0-.845-.916Zm-3.564,2.09a2.937,2.937,0,0,0,.844-.753,5.984,5.984,0,0,0,.456-.71,3.4,3.4,0,0,0,.222-.5l.1-.31h-.778l-.693.017v-.984l.693.021h.778v-.958c-.267.037-.525.071-.778.1l-.457.053a7.621,7.621,0,0,0-.219-.807l-.082-.194a8.1,8.1,0,0,0,1.887-.144,9.153,9.153,0,0,0,1.338-.4,10.045,10.045,0,0,0,.555,1c-.151.035-.265.059-.339.073l-.607.1-.318.06v1.114h.443l.584-.021v.984l-.584-.017h-.443v.881a2.233,2.233,0,0,0,.218-.125c.053-.034.175-.129.366-.284.116.153.2.266.258.34l.361.534.2.279c-.075.06-.164.133-.268.22a4.231,4.231,0,0,1-.346.253l2.683-.553v-3.944l-.034-.9h1.059l-.031.9v3.766l.494-.112.584-.155v1l-.468.073-.61.134v1.444l.031,1.007h-1.059l.034-1.007v-1.241l-2.184.425-.843.214-.124-1,.227-.04c-.037-.075-.066-.132-.088-.172s-.089-.148-.2-.323a1.726,1.726,0,0,0-.258-.339v2.563l.03.929h-1.041l.03-.929V128c-.117.155-.235.3-.351.445s-.371.418-.768.828q-.339-.8-.374-.863Zm-19.519-2.495.022-.671v-.774l-.022-.619,1.161.03h2.193a4.762,4.762,0,0,0-.473-.706,5.091,5.091,0,0,0,.907-.472,7.688,7.688,0,0,1,.658.976,3.971,3.971,0,0,1-.422.2H107.9l1.255-.03-.016.628v.945l.016.542h-1.083l.013-.678v-.4h-5.341v.327l.022.7Zm-.1,1.35,1.148.035h2.215v-.809h-1.093l-.834.022v-.96l.865.013h3.109l.865-.013v.96l-.9-.022h-.956v.809h1.944l1.279-.035v1.046l-1.266-.034h-1.957v1.656a3.088,3.088,0,0,1-.03.522.758.758,0,0,1-.111.266.7.7,0,0,1-.41.2,6.714,6.714,0,0,1-1.221.1,5.514,5.514,0,0,0-.194-.912l-.072-.2c.548.045.847.035.9-.032a.5.5,0,0,0,.081-.311v-1.29h-2.172l-1.191.034Zm-16.428-.73h2.619v-.375H85.131Zm0,1.131h2.619v-.391H85.14Zm2.619.718H85.14v.374h2.619Zm-4.171-4.377.761.016h.525q-.3-.348-.594-.679c.364-.178.649-.329.851-.455.276.316.43.5.466.538l.287.37c-.123.078-.24.153-.352.227h1.44l-.314-.154a10.59,10.59,0,0,0,.619-.985,6.383,6.383,0,0,0,.912.46,7.631,7.631,0,0,1-.464.679h1l.6-.016,0,.971-.555-.022H86.9l-.109.383h1.3l.689-.022-.018.894v2.266l.031,1.179-.74-.02H84.886l-.76.02.02-.778v-2.614l-.033-.956.886.031h.769l.074-.383h-1.39l-.863.022Zm-2-.263a8.044,8.044,0,0,0,.873-.666q.533.657,1.068,1.346c-.1.1-.175.179-.225.227l-.412.4-.154.16Q82.087,124.1,81.583,123.495Zm-.132,3.086v-1.005l.635.018h.834l.548-.022-.022.731V128.9a4.284,4.284,0,0,0,.8.636,1.65,1.65,0,0,0,.52.179c.168.023.689.048,1.563.073a29.013,29.013,0,0,0,3.15-.119c-.048.121-.1.244-.14.371a2.181,2.181,0,0,0-.1.458l-.03.237q-.974.033-1.437.029-.154,0-1.43-.027c-.85-.016-1.406-.034-1.669-.051a1.729,1.729,0,0,1-.694-.181,1.392,1.392,0,0,1-.443-.326l-.223-.276a.427.427,0,0,0-.258-.134.953.953,0,0,0-.507.23,2.918,2.918,0,0,0-.383.3l-.345.361-.33-1.248a5.435,5.435,0,0,0,.967-.4v-2.451h-.4Zm-19.8-.963.027-.662V124.3l-.027-.585.9.017h2.61a3.574,3.574,0,0,0-.254-.563l-.176-.288a6.523,6.523,0,0,0,.74-.245l.245-.124q.134.258.278.518c.1.173.15.264.156.273l.133.279c-.11.05-.215.1-.318.151h2.7l.731-.031-.031.6v.761l.031.568H68.361l.016-.477v-.5l-5.658-.013v.512l.022.468Zm3.4,2.357H63.7l-.887.017v-.916l-.434.258c-.058-.12-.111-.223-.16-.307a5.422,5.422,0,0,0-.5-.587,6.167,6.167,0,0,0,.789-.3,5.588,5.588,0,0,0,.69-.4q.365-.249.609-.454a5.263,5.263,0,0,0,.535-.539c.114.13.216.235.3.314a5.229,5.229,0,0,0,.563.409q-.938.7-1.254.916c-.209.142-.559.361-1.046.653l.791.022h3.822l.637-.022q-.2-.112-.292-.172l-.967-.65-.762-.468-.3-.189c.1-.083.2-.168.288-.251a2.907,2.907,0,0,0,.37-.5q.009.009,2.7,1.7c-.075.106-.14.2-.2.289s-.176.307-.357.656q-.176-.167-.383-.339v.885l-.731-.017H66.073v1.538h2.576l.791-.034v1l-.791-.03H62.525l-.894.03v-1l.894.034h2.521ZM45.377,126.6a6.334,6.334,0,0,0,.622-.258l.323-.171q.233.464.323.651t.477,1.026c-.135.051-.251.1-.348.144s-.3.161-.607.35a9.46,9.46,0,0,0-.473-1.158Zm-.309-1.828.756.03h1.794v-1.152l-.031-.95h1.058l-.03.937V124.8h.266l.731-.03v1.006l-.731-.03h-.266v4.326a.579.579,0,0,1-.059.29.9.9,0,0,1-.4.232,3.946,3.946,0,0,1-1.28.127c-.021-.132-.042-.251-.066-.358a1.83,1.83,0,0,0-.11-.322l-.185-.422q.18.021.546.038c.28.018.443-.006.489-.071a.491.491,0,0,0,.066-.277v-3.565h-1.8l-.747.03Zm-1.226,4.168V126.93H42.676v2.013ZM42.676,126h1.165v-1.966H42.676Zm-1.016-2.9.679.022h1.8l.722-.022-.029.916v4.949l.029,1.059H43.841v-.154H42.676V130H41.66l.027-.973V124Z" transform="translate(-0.536 -6.313)" fill="#fff"/>
    </g>
    <path id="路径_364" data-name="路径 364" d="M96.312,42.616c-4.74-.705-8.345-4.251-8.345-8.519s3.606-7.814,8.345-8.519Zm6.412-.383a4.338,4.338,0,0,1-.628.046,4.5,4.5,0,0,1-4.438-4.563,4.689,4.689,0,0,1,.031-.538h5.035ZM83.082,21.692h24.669V46.361H83.082Z" transform="translate(-52.082 -7.131)" fill="#fff" fill-rule="evenodd"/>
  </g>
</svg>
